<mxfile host="app.diagrams.net" agent="Mozilla/5.0 (Windows NT 10.0; Win64; x64) AppleWebKit/537.36 (KHTML, like Gecko) Chrome/129.0.0.0 Safari/537.36" version="24.8.4">
  <diagram id="C5RBs43oDa-KdzZeNtuy" name="Page-1">
    <mxGraphModel dx="983" dy="536" grid="1" gridSize="10" guides="1" tooltips="1" connect="1" arrows="1" fold="1" page="1" pageScale="1" pageWidth="827" pageHeight="1169" math="0" shadow="0">
      <root>
        <mxCell id="WIyWlLk6GJQsqaUBKTNV-0" />
        <mxCell id="WIyWlLk6GJQsqaUBKTNV-1" parent="WIyWlLk6GJQsqaUBKTNV-0" />
        <mxCell id="DKXoTVY7TYf7rktS50rq-0" value="AudioPlayer" style="swimlane;fontStyle=1;align=center;verticalAlign=top;childLayout=stackLayout;horizontal=1;startSize=26;horizontalStack=0;resizeParent=1;resizeParentMax=0;resizeLast=0;collapsible=1;marginBottom=0;whiteSpace=wrap;html=1;" parent="WIyWlLk6GJQsqaUBKTNV-1" vertex="1">
          <mxGeometry x="70" y="110" width="270" height="180" as="geometry" />
        </mxCell>
        <mxCell id="DKXoTVY7TYf7rktS50rq-1" value="&lt;div&gt;- content: AudioContent&lt;/div&gt;- currentTime : Long" style="text;strokeColor=none;fillColor=none;align=left;verticalAlign=top;spacingLeft=4;spacingRight=4;overflow=hidden;rotatable=0;points=[[0,0.5],[1,0.5]];portConstraint=eastwest;whiteSpace=wrap;html=1;" parent="DKXoTVY7TYf7rktS50rq-0" vertex="1">
          <mxGeometry y="26" width="270" height="44" as="geometry" />
        </mxCell>
        <mxCell id="DKXoTVY7TYf7rktS50rq-2" value="" style="line;strokeWidth=1;fillColor=none;align=left;verticalAlign=middle;spacingTop=-1;spacingLeft=3;spacingRight=3;rotatable=0;labelPosition=right;points=[];portConstraint=eastwest;strokeColor=inherit;" parent="DKXoTVY7TYf7rktS50rq-0" vertex="1">
          <mxGeometry y="70" width="270" height="8" as="geometry" />
        </mxCell>
        <mxCell id="DKXoTVY7TYf7rktS50rq-3" value="+ play(): void&lt;div&gt;+ pause(): void&lt;/div&gt;&lt;div&gt;+ seek(timestamp: Long): void&lt;/div&gt;&lt;div&gt;+ getContentTitle(): String&lt;/div&gt;&lt;div&gt;+ getCurrentTime(): Long&lt;/div&gt;&lt;div&gt;+ setAudioContent(content: AudioContent): void&lt;/div&gt;" style="text;strokeColor=none;fillColor=none;align=left;verticalAlign=top;spacingLeft=4;spacingRight=4;overflow=hidden;rotatable=0;points=[[0,0.5],[1,0.5]];portConstraint=eastwest;whiteSpace=wrap;html=1;" parent="DKXoTVY7TYf7rktS50rq-0" vertex="1">
          <mxGeometry y="78" width="270" height="102" as="geometry" />
        </mxCell>
        <mxCell id="DKXoTVY7TYf7rktS50rq-4" value="AudioContent" style="swimlane;fontStyle=1;align=center;verticalAlign=top;childLayout=stackLayout;horizontal=1;startSize=26;horizontalStack=0;resizeParent=1;resizeParentMax=0;resizeLast=0;collapsible=1;marginBottom=0;whiteSpace=wrap;html=1;" parent="WIyWlLk6GJQsqaUBKTNV-1" vertex="1">
          <mxGeometry x="520" y="99" width="230" height="180" as="geometry" />
        </mxCell>
        <mxCell id="DKXoTVY7TYf7rktS50rq-5" value="- title: String&lt;div&gt;- length: Long&lt;/div&gt;&lt;div&gt;- fileUrl&lt;span style=&quot;background-color: initial;&quot;&gt;: String&lt;/span&gt;&lt;/div&gt;" style="text;strokeColor=none;fillColor=none;align=left;verticalAlign=top;spacingLeft=4;spacingRight=4;overflow=hidden;rotatable=0;points=[[0,0.5],[1,0.5]];portConstraint=eastwest;whiteSpace=wrap;html=1;" parent="DKXoTVY7TYf7rktS50rq-4" vertex="1">
          <mxGeometry y="26" width="230" height="64" as="geometry" />
        </mxCell>
        <mxCell id="DKXoTVY7TYf7rktS50rq-6" value="" style="line;strokeWidth=1;fillColor=none;align=left;verticalAlign=middle;spacingTop=-1;spacingLeft=3;spacingRight=3;rotatable=0;labelPosition=right;points=[];portConstraint=eastwest;strokeColor=inherit;" parent="DKXoTVY7TYf7rktS50rq-4" vertex="1">
          <mxGeometry y="90" width="230" height="8" as="geometry" />
        </mxCell>
        <mxCell id="DKXoTVY7TYf7rktS50rq-7" value="&lt;div&gt;+ getTitle(): String&lt;/div&gt;&lt;div&gt;+ getLength(): Long&lt;/div&gt;" style="text;strokeColor=none;fillColor=none;align=left;verticalAlign=top;spacingLeft=4;spacingRight=4;overflow=hidden;rotatable=0;points=[[0,0.5],[1,0.5]];portConstraint=eastwest;whiteSpace=wrap;html=1;" parent="DKXoTVY7TYf7rktS50rq-4" vertex="1">
          <mxGeometry y="98" width="230" height="82" as="geometry" />
        </mxCell>
        <mxCell id="DKXoTVY7TYf7rktS50rq-15" value="Landmark" style="swimlane;fontStyle=1;align=center;verticalAlign=top;childLayout=stackLayout;horizontal=1;startSize=26;horizontalStack=0;resizeParent=1;resizeParentMax=0;resizeLast=0;collapsible=1;marginBottom=0;whiteSpace=wrap;html=1;" parent="WIyWlLk6GJQsqaUBKTNV-1" vertex="1">
          <mxGeometry x="500" y="352" width="230" height="180" as="geometry" />
        </mxCell>
        <mxCell id="DKXoTVY7TYf7rktS50rq-16" value="- name: String&lt;div&gt;- location: String&lt;/div&gt;&lt;div&gt;- description: String&lt;/div&gt;&lt;div&gt;- audioContents: AudioContent[]&lt;/div&gt;" style="text;strokeColor=none;fillColor=none;align=left;verticalAlign=top;spacingLeft=4;spacingRight=4;overflow=hidden;rotatable=0;points=[[0,0.5],[1,0.5]];portConstraint=eastwest;whiteSpace=wrap;html=1;" parent="DKXoTVY7TYf7rktS50rq-15" vertex="1">
          <mxGeometry y="26" width="230" height="74" as="geometry" />
        </mxCell>
        <mxCell id="DKXoTVY7TYf7rktS50rq-17" value="" style="line;strokeWidth=1;fillColor=none;align=left;verticalAlign=middle;spacingTop=-1;spacingLeft=3;spacingRight=3;rotatable=0;labelPosition=right;points=[];portConstraint=eastwest;strokeColor=inherit;" parent="DKXoTVY7TYf7rktS50rq-15" vertex="1">
          <mxGeometry y="100" width="230" height="8" as="geometry" />
        </mxCell>
        <mxCell id="DKXoTVY7TYf7rktS50rq-18" value="&lt;div&gt;+ getName(): String&lt;/div&gt;&lt;div&gt;+ getLocation(): String&lt;/div&gt;&lt;div&gt;+ getDescription: String&lt;/div&gt;&lt;div&gt;+ getAudioContents: AudioContent[]&lt;/div&gt;" style="text;strokeColor=none;fillColor=none;align=left;verticalAlign=top;spacingLeft=4;spacingRight=4;overflow=hidden;rotatable=0;points=[[0,0.5],[1,0.5]];portConstraint=eastwest;whiteSpace=wrap;html=1;" parent="DKXoTVY7TYf7rktS50rq-15" vertex="1">
          <mxGeometry y="108" width="230" height="72" as="geometry" />
        </mxCell>
        <mxCell id="DKXoTVY7TYf7rktS50rq-19" value="User" style="swimlane;fontStyle=1;align=center;verticalAlign=top;childLayout=stackLayout;horizontal=1;startSize=26;horizontalStack=0;resizeParent=1;resizeParentMax=0;resizeLast=0;collapsible=1;marginBottom=0;whiteSpace=wrap;html=1;" parent="WIyWlLk6GJQsqaUBKTNV-1" vertex="1">
          <mxGeometry x="95" y="422" width="245" height="150" as="geometry" />
        </mxCell>
        <mxCell id="DKXoTVY7TYf7rktS50rq-20" value="- name: String&lt;div&gt;- role: String&lt;/div&gt;&lt;div&gt;- location: String&lt;/div&gt;&lt;div&gt;- audioPlayer: AudioPlayer&lt;/div&gt;&lt;div&gt;- landmarks: Landmark[]&lt;/div&gt;" style="text;strokeColor=none;fillColor=none;align=left;verticalAlign=top;spacingLeft=4;spacingRight=4;overflow=hidden;rotatable=0;points=[[0,0.5],[1,0.5]];portConstraint=eastwest;whiteSpace=wrap;html=1;" parent="DKXoTVY7TYf7rktS50rq-19" vertex="1">
          <mxGeometry y="26" width="245" height="94" as="geometry" />
        </mxCell>
        <mxCell id="DKXoTVY7TYf7rktS50rq-21" value="" style="line;strokeWidth=1;fillColor=none;align=left;verticalAlign=middle;spacingTop=-1;spacingLeft=3;spacingRight=3;rotatable=0;labelPosition=right;points=[];portConstraint=eastwest;strokeColor=inherit;" parent="DKXoTVY7TYf7rktS50rq-19" vertex="1">
          <mxGeometry y="120" width="245" height="8" as="geometry" />
        </mxCell>
        <mxCell id="DKXoTVY7TYf7rktS50rq-22" value="&lt;div&gt;&lt;br&gt;&lt;/div&gt;" style="text;strokeColor=none;fillColor=none;align=left;verticalAlign=top;spacingLeft=4;spacingRight=4;overflow=hidden;rotatable=0;points=[[0,0.5],[1,0.5]];portConstraint=eastwest;whiteSpace=wrap;html=1;" parent="DKXoTVY7TYf7rktS50rq-19" vertex="1">
          <mxGeometry y="128" width="245" height="22" as="geometry" />
        </mxCell>
        <mxCell id="DKXoTVY7TYf7rktS50rq-24" value="" style="endArrow=diamondThin;endFill=1;endSize=24;html=1;rounded=0;entryX=0.999;entryY=0.857;entryDx=0;entryDy=0;entryPerimeter=0;exitX=-0.001;exitY=0.741;exitDx=0;exitDy=0;exitPerimeter=0;" parent="WIyWlLk6GJQsqaUBKTNV-1" target="DKXoTVY7TYf7rktS50rq-1" edge="1" source="DKXoTVY7TYf7rktS50rq-5">
          <mxGeometry width="160" relative="1" as="geometry">
            <mxPoint x="450" y="180" as="sourcePoint" />
            <mxPoint x="360" y="190" as="targetPoint" />
          </mxGeometry>
        </mxCell>
        <mxCell id="DKXoTVY7TYf7rktS50rq-25" value="" style="endArrow=diamondThin;endFill=0;endSize=24;html=1;rounded=0;exitX=0.377;exitY=0.998;exitDx=0;exitDy=0;exitPerimeter=0;entryX=0.414;entryY=0.001;entryDx=0;entryDy=0;entryPerimeter=0;" parent="WIyWlLk6GJQsqaUBKTNV-1" source="DKXoTVY7TYf7rktS50rq-7" target="DKXoTVY7TYf7rktS50rq-15" edge="1">
          <mxGeometry width="160" relative="1" as="geometry">
            <mxPoint x="400" y="320" as="sourcePoint" />
            <mxPoint x="570" y="300" as="targetPoint" />
          </mxGeometry>
        </mxCell>
        <mxCell id="DKXoTVY7TYf7rktS50rq-29" value="" style="endArrow=open;html=1;edgeStyle=orthogonalEdgeStyle;rounded=0;exitX=1.001;exitY=0.339;exitDx=0;exitDy=0;exitPerimeter=0;endFill=0;" parent="WIyWlLk6GJQsqaUBKTNV-1" source="DKXoTVY7TYf7rktS50rq-20" edge="1">
          <mxGeometry relative="1" as="geometry">
            <mxPoint x="290" y="380" as="sourcePoint" />
            <mxPoint x="500" y="470" as="targetPoint" />
            <Array as="points">
              <mxPoint x="420" y="470" />
              <mxPoint x="500" y="470" />
            </Array>
          </mxGeometry>
        </mxCell>
        <mxCell id="DKXoTVY7TYf7rktS50rq-31" value="&lt;font style=&quot;font-size: 17px;&quot;&gt;1..*&lt;/font&gt;" style="edgeLabel;resizable=0;html=1;align=right;verticalAlign=bottom;" parent="DKXoTVY7TYf7rktS50rq-29" connectable="0" vertex="1">
          <mxGeometry x="1" relative="1" as="geometry">
            <mxPoint x="-10" as="offset" />
          </mxGeometry>
        </mxCell>
        <mxCell id="DKXoTVY7TYf7rktS50rq-33" value="&lt;font style=&quot;font-size: 15px;&quot;&gt;visits -&amp;gt;&lt;/font&gt;" style="text;html=1;align=center;verticalAlign=middle;resizable=0;points=[];autosize=1;strokeColor=none;fillColor=none;" parent="WIyWlLk6GJQsqaUBKTNV-1" vertex="1">
          <mxGeometry x="379" y="447" width="70" height="30" as="geometry" />
        </mxCell>
        <mxCell id="DKXoTVY7TYf7rktS50rq-34" value="" style="endArrow=none;html=1;edgeStyle=orthogonalEdgeStyle;rounded=0;exitX=0.37;exitY=1.003;exitDx=0;exitDy=0;exitPerimeter=0;entryX=0.307;entryY=0.005;entryDx=0;entryDy=0;entryPerimeter=0;endFill=0;startArrow=open;startFill=0;" parent="WIyWlLk6GJQsqaUBKTNV-1" source="DKXoTVY7TYf7rktS50rq-3" target="DKXoTVY7TYf7rktS50rq-19" edge="1">
          <mxGeometry relative="1" as="geometry">
            <mxPoint x="160" y="330" as="sourcePoint" />
            <mxPoint x="320" y="330" as="targetPoint" />
            <Array as="points">
              <mxPoint x="170" y="292" />
              <mxPoint x="170" y="292" />
            </Array>
          </mxGeometry>
        </mxCell>
        <mxCell id="DKXoTVY7TYf7rktS50rq-35" value="&lt;font style=&quot;font-size: 13px;&quot;&gt;0..1&lt;/font&gt;" style="edgeLabel;resizable=0;html=1;align=left;verticalAlign=bottom;" parent="DKXoTVY7TYf7rktS50rq-34" connectable="0" vertex="1">
          <mxGeometry x="-1" relative="1" as="geometry">
            <mxPoint x="5" y="20" as="offset" />
          </mxGeometry>
        </mxCell>
        <mxCell id="DKXoTVY7TYf7rktS50rq-37" value="&lt;font style=&quot;font-size: 15px;&quot;&gt;&amp;lt;- listens&lt;/font&gt;" style="text;html=1;align=center;verticalAlign=middle;resizable=0;points=[];autosize=1;strokeColor=none;fillColor=none;rotation=90;" parent="WIyWlLk6GJQsqaUBKTNV-1" vertex="1">
          <mxGeometry x="145" y="340" width="80" height="30" as="geometry" />
        </mxCell>
        <mxCell id="oSlCNeu1dLklKUqMSzhV-0" value="1" style="text;html=1;align=center;verticalAlign=middle;resizable=0;points=[];autosize=1;strokeColor=none;fillColor=none;fontSize=15;" vertex="1" parent="WIyWlLk6GJQsqaUBKTNV-1">
          <mxGeometry x="595" y="328" width="30" height="30" as="geometry" />
        </mxCell>
        <mxCell id="oSlCNeu1dLklKUqMSzhV-1" value="*" style="text;html=1;align=center;verticalAlign=middle;resizable=0;points=[];autosize=1;strokeColor=none;fillColor=none;fontSize=15;" vertex="1" parent="WIyWlLk6GJQsqaUBKTNV-1">
          <mxGeometry x="595" y="278" width="30" height="30" as="geometry" />
        </mxCell>
        <mxCell id="oSlCNeu1dLklKUqMSzhV-2" value="1" style="text;html=1;align=center;verticalAlign=middle;resizable=0;points=[];autosize=1;strokeColor=none;fillColor=none;fontSize=15;" vertex="1" parent="WIyWlLk6GJQsqaUBKTNV-1">
          <mxGeometry x="490" y="148" width="30" height="30" as="geometry" />
        </mxCell>
        <mxCell id="oSlCNeu1dLklKUqMSzhV-3" value="1" style="text;html=1;align=center;verticalAlign=middle;resizable=0;points=[];autosize=1;strokeColor=none;fillColor=none;fontSize=15;" vertex="1" parent="WIyWlLk6GJQsqaUBKTNV-1">
          <mxGeometry x="349" y="148" width="30" height="30" as="geometry" />
        </mxCell>
      </root>
    </mxGraphModel>
  </diagram>
</mxfile>
